<?xml version="1.0" encoding="utf-8"?>
<!-- Generator: Adobe Illustrator 16.0.0, SVG Export Plug-In . SVG Version: 6.00 Build 0)  -->
<!DOCTYPE svg PUBLIC "-//W3C//DTD SVG 1.1//EN" "http://www.w3.org/Graphics/SVG/1.1/DTD/svg11.dtd">
<svg version="1.1" id="svg3797" xmlns:svg="http://www.w3.org/2000/svg"
	 xmlns="http://www.w3.org/2000/svg" xmlns:xlink="http://www.w3.org/1999/xlink" x="0px" y="0px" width="1024px" height="209px"
	 viewBox="0 0 1024 209" enable-background="new 0 0 1024 209" xml:space="preserve">
<rect x="5.184" y="7.286" fill="#FFFFFF" width="194.289" height="194.288"/>
<path id="path3225" fill="#173A79" d="M5.184,7.286V147.55c14.819-18.134,27.603-25.679,32.968-28.063
	c0.499-0.221,0.52-0.563,0.494-0.709c-0.039-0.254-0.289-0.521-0.935-0.51c-2.645,0.035-8.099,1.518-11.662,2.83
	c-0.832,0.309-0.964-0.244-0.627-0.877c0.765-1.43,4.255-4.715,14.683-8.925c17.22-6.952,35.016-6.192,43.166-2.104
	c3.608,1.82,5.121,5.43,5.563,6.73c0.059,0.167-0.021,0.256-0.143,0.256c-12.646-0.144-18.345,0.5-22.119,1.653
	c-1.126,0.344-1.232,1.181-0.244,1.931c1.786,1.354,7.328,2.774,9.547,3.146c0.661,0.107,1.019-0.112,1.43-0.577
	c0.476-0.544,1.072-1.317,1.602-1.832c0.416-0.399,0.621-0.444,1.404-0.498c1.176-0.089,3.873-0.128,6.252-0.089
	c11.079,0.199,23.438,2.938,23.438,18.624c0,5.639-2.312,11.151-3.397,12.836c-0.715,1.106-1.851,1.058-1.787-0.599
	c0.299-7.701-0.944-10.867-13.131-10.867c-6.163,0-15.896,0.892-20.264,2.947c-1.62,0.758-1.777,2.148-0.143,2.006
	C73.705,144.656,83.222,144,89.964,144c4.46,0,7.965,0.445,9.229,2.223c0.31,0.426,0.372,1.234-0.694,1.077
	c-0.432-0.06-1.563-0.19-3.135-0.19c-14.025,0-27.738,8.273-27.738,22.6c0,22.762,33.497,31.866,75.395,31.866
	c33.737,0,56.453-7.24,56.453-7.24L199.468,7.286H5.184L5.184,7.286z"/>
<path id="path3229" fill="#FFFFFF" d="M289.397,35.405c0-13.605-18.472-10.712-18.472-16.979c0-2.146,1.336-3.858,6.32-3.858
	c3.055,0,6.374,0.642,9.688,1.713l1.126-7.598c-3.104-1.283-7.329-2.085-11.24-2.085c-10.179,0-14.564,5.513-14.564,12.308
	c0,13.444,18.477,10.766,18.477,17.086c0,2.786-1.934,4.396-6.325,4.396c-3.966,0-7.604-1.072-11.133-2.947l-1.18,7.76
	c3.479,1.87,7.76,2.996,12.42,2.996C283.884,48.197,289.397,43.331,289.397,35.405 M311.661,21.207v-6.203h-7.23V7.293l-6.526,0.573
	l-1.39,7.138H292.5v6.203h3.638v16.43c0,6.066,3.157,9.811,9.635,9.811c2.301,0,4.445-0.431,5.566-0.911l-0.479-6.036
	c-0.593,0.21-1.714,0.367-2.57,0.367c-2.569,0-3.857-1.042-3.857-3.496V21.207H311.661L311.661,21.207z M335.382,47.448h6.368
	V27.376c0-8.896-3.318-13.013-12.904-13.013c-4.176,0-7.872,0.749-11.133,2.14l0.694,6.639c2.996-1.234,5.353-1.772,8.939-1.772
	c4.444,0,6.164,1.503,6.164,4.773v1.875c-1.72-0.539-3.805-0.911-6.218-0.911c-7.389,0-11.563,4.118-11.563,10.115
	c0,6.751,3.906,10.227,10.065,10.227c3.695,0,6.801-1.336,8.782-3.691l0.161,0.054L335.382,47.448L335.382,47.448z M333.512,37.593
	c0,1.665-2.575,3.275-5.415,3.275c-2.731,0-4.606-1.058-4.606-4.02c0-2.663,1.713-4.02,5.409-4.02c2.198,0,3.805,0.353,4.612,0.651
	V37.593z M367.562,47.448h6.369V27.376c0-8.896-3.318-13.013-12.899-13.013c-4.182,0-7.873,0.749-11.139,2.14l0.695,6.639
	c2.996-1.234,5.352-1.772,8.938-1.772c4.451,0,6.164,1.503,6.164,4.773v1.875c-1.713-0.539-3.804-0.911-6.218-0.911
	c-7.388,0-11.56,4.118-11.56,10.115c0,6.751,3.902,10.227,10.062,10.227c3.696,0,6.806-1.336,8.788-3.691l0.157,0.054
	L367.562,47.448L367.562,47.448z M365.692,37.593c0,1.665-2.57,3.275-5.41,3.275c-2.735,0-4.61-1.058-4.61-4.02
	c0-2.663,1.714-4.02,5.415-4.02c2.192,0,3.804,0.353,4.605,0.651V37.593z M398.347,21.207v-6.203h-7.228V7.293l-6.53,0.573
	l-1.391,7.138h-4.015v6.203h3.643v16.43c0,6.066,3.157,9.811,9.63,9.811c2.307,0,4.445-0.431,5.571-0.911l-0.484-6.036
	c-0.588,0.21-1.714,0.367-2.57,0.367c-2.57,0-3.854-1.042-3.854-3.496V21.207H398.347L398.347,21.207z M413.019,47.448V5.364
	l-8.4,0.377v41.707H413.019L413.019,47.448z M430.85,47.448V15.004l-8.504,0.372v32.072H430.85z M431.334,7.989
	c0-2.355-1.444-3.584-4.711-3.584c-3.211,0-4.764,1.283-4.764,3.584c0,2.619,1.553,3.53,4.764,3.53
	C429.89,11.519,431.334,10.338,431.334,7.989 M460.729,16.395c-2.032-0.803-5.087-1.39-7.819-1.39
	c-10.384,0-14.823,6.046-14.823,16.547c0,11.084,5.082,16.538,14.668,16.538c3.479,0,6.368-0.695,8.299-1.87l-0.588-6.443
	c-1.714,0.783-3.75,1.199-5.896,1.199c-5.033,0-7.867-2.658-7.867-9.424c0-6.663,1.979-9.111,8.028-9.111
	c1.875,0,3.858,0.416,5.518,0.989L460.729,16.395L460.729,16.395z M494.573,47.448v-20.67c0-7.813-4.015-12.416-10.868-12.416
	c-2.731,0-5.68,0.749-8.088,2.781l-0.162-0.107l0.108-4.279V5.364l-8.294,0.431v41.653h8.294v-23.24
	c1.018-1.39,3.108-2.462,5.518-2.462c3.534,0,5.199,1.713,5.199,5.033v20.67L494.573,47.448L494.573,47.448z M516.692,48.036
	c4.122,0,7.867-0.856,10.6-2.085l-0.909-6.692c-2.781,1.072-5.616,1.611-8.671,1.611c-5.571,0-8.2-2.037-8.627-7.452h18.902
	c0.156-1.121,0.211-2.673,0.211-3.902c0-10.286-5.082-15.099-13.381-15.099c-9.747,0-14.295,6.042-14.295,16.381
	C500.522,42.151,505.5,48.036,516.692,48.036 M508.922,27.91c0.377-4.72,1.929-6.595,5.947-6.595c3.481,0,5.626,1.826,5.733,6.595
	H508.922z M550.213,7.293v40.155h7.971v-20.4l-0.054-4.333l0.106-0.053l1.503,4.068l8.19,20.719h6.002l8.25-20.772l1.498-4.068
	l0.162,0.054l-0.108,4.333V47.45h8.24V7.294h-9.953l-9.376,23.451l-1.498,4.014h-0.161l-1.498-4.014l-9.32-23.451L550.213,7.293
	L550.213,7.293z M627.151,15.004h-8.289v20.831c0,3.319-1.714,4.872-5.359,4.872c-3.644,0-5.356-1.66-5.356-4.872V15.004h-8.293
	v20.993c0,7.706,4.44,12.039,13.649,12.039c9.214,0,13.648-4.171,13.648-12.039V15.004L627.151,15.004z M656.122,37.388
	c0-10.893-14.834-8.029-14.834-12.822c0-1.615,1.503-2.658,4.239-2.658c2.409,0,5.998,0.519,8.671,1.616l0.69-6.751
	c-2.729-1.126-5.935-1.767-9.204-1.767c-8.357,0-12.313,4.171-12.313,9.923c0,11.05,15.046,8.132,15.046,13.189
	c0,1.875-1.392,3.177-4.716,3.177c-2.79,0-6.584-0.729-9.258-2.242l-0.855,6.791c2.727,1.498,6.257,2.247,10.168,2.247
	C652.538,48.09,656.122,43.757,656.122,37.388 M676.959,48.036c4.117,0,7.867-0.856,10.595-2.085l-0.91-6.692
	c-2.781,1.072-5.61,1.611-8.671,1.611c-5.571,0-8.195-2.037-8.621-7.452h18.896c0.161-1.121,0.221-2.673,0.221-3.902
	c0-10.286-5.086-15.099-13.391-15.099c-9.742,0-14.291,6.042-14.291,16.381C660.787,42.151,665.768,48.036,676.959,48.036
	 M669.185,27.91c0.377-4.72,1.929-6.595,5.953-6.595c3.48,0,5.626,1.826,5.729,6.595H669.185z M709.407,48.036
	c4.122,0,7.867-0.856,10.596-2.085l-0.905-6.692c-2.781,1.072-5.621,1.611-8.671,1.611c-5.576,0-8.195-2.037-8.626-7.452h18.901
	c0.156-1.121,0.211-2.673,0.211-3.902c0-10.286-5.087-15.099-13.385-15.099c-9.748,0-14.291,6.042-14.291,16.381
	C693.239,42.151,698.212,48.036,709.407,48.036 M701.635,27.91c0.376-4.72,1.934-6.595,5.947-6.595c3.48,0,5.631,1.826,5.737,6.595
	H701.635z M754.485,47.448v-20.67c0-8.083-4.328-12.416-11.183-12.416c-3.373,0-6.535,1.121-8.944,3.207l-1.232-2.781l-5.993,0.377
	v32.283h8.348v-23.24c1.126-1.552,3.373-2.463,5.464-2.463c3.433,0,5.248,1.444,5.248,5.033v20.67H754.485L754.485,47.448z
	 M800.166,20.781v-5.777h-23.344l-0.269,6.903h13.978l0.049,0.108l-2.569,3.373l-11.888,16.229v5.831h24.313l0.211-6.903h-14.883
	l-0.049-0.161l2.569-3.319L800.166,20.781L800.166,20.781z M834.06,15.004h-8.293v20.831c0,3.319-1.714,4.872-5.356,4.872
	c-3.646,0-5.359-1.66-5.359-4.872V15.004h-8.294v20.993c0,7.706,4.439,12.039,13.653,12.039c9.209,0,13.649-4.171,13.649-12.039
	V15.004L834.06,15.004z M888.139,35.777c0-5.092-2.352-8.244-6.791-9.478v-0.103c3.207-1.342,5.347-4.122,5.347-8.626
	c0-6.37-4.387-10.276-13.111-10.276h-16.331v40.155h16.543C883.912,47.448,888.139,43.008,888.139,35.777 M879.101,35.082
	c0,3.804-1.61,4.984-5.194,4.984h-7.984v-9.752h7.765C877.598,30.313,879.101,31.704,879.101,35.082 M878.076,19.175
	c0,3.163-1.39,4.45-4.605,4.45h-7.495v-8.734h7.284C876.634,14.891,878.076,16.018,878.076,19.175 M909.568,48.036
	c4.127,0,7.867-0.856,10.594-2.085l-0.909-6.692c-2.781,1.072-5.615,1.611-8.672,1.611c-5.57,0-8.194-2.037-8.62-7.452h18.901
	c0.157-1.121,0.211-2.673,0.211-3.902c0-10.286-5.082-15.099-13.385-15.099c-9.748,0-14.291,6.042-14.291,16.381
	C893.397,42.151,898.375,48.036,909.568,48.036 M901.793,27.91c0.377-4.72,1.934-6.595,5.947-6.595c3.485,0,5.63,1.826,5.732,6.595
	H901.793z M935.637,47.448v-15.93c0-5.288,3.217-8.381,7.55-8.381c1.287,0,2.521,0.21,3.534,0.523l0.534-8.176
	c-0.856-0.264-2.092-0.479-3.53-0.479c-3.701,0-6.854,1.924-8.886,5.831h-0.166l-0.749-5.4l-6.635,0.318v31.695L935.637,47.448
	L935.637,47.448z M961.933,47.448V5.364l-8.406,0.377v41.707H961.933L961.933,47.448z M979.758,47.448V15.004l-8.504,0.372v32.072
	H979.758z M980.246,7.989c0-2.355-1.448-3.584-4.709-3.584c-3.217,0-4.764,1.283-4.764,3.584c0,2.619,1.547,3.53,4.764,3.53
	C978.798,11.519,980.246,10.338,980.246,7.989 M1015.796,47.448v-20.67c0-8.083-4.328-12.416-11.184-12.416
	c-3.383,0-6.54,1.121-8.943,3.207l-1.233-2.781l-5.992,0.377v32.283h8.342v-23.24c1.132-1.552,3.379-2.463,5.47-2.463
	c3.427,0,5.248,1.444,5.248,5.033v20.67H1015.796L1015.796,47.448z"/>
<path id="path3233" fill="#FFFFFF" d="M890.615,117.811l13.571-19.484v-3.544h-20.924l-0.152,4.21h15.422l0.049,0.103l-2.412,3.29
	l-13.625,19.54v3.49h21.796l0.155-4.211H888.25l-0.055-0.156L890.615,117.811L890.615,117.811z M869.121,98.58h7.561v-3.799h-7.561
	v-7.917l-3.799,0.406l-0.926,7.51h-4.421v3.799h4.27v18.556c0,5.352,2.723,8.278,7.96,8.278c1.646,0,3.346-0.31,4.271-0.769
	l-0.31-3.688c-0.615,0.25-1.697,0.4-2.569,0.4c-2.775,0-4.476-1.258-4.476-4.377V98.58L869.121,98.58z M852.365,87.017
	c0-1.694-1.027-2.62-3.134-2.62c-2.104,0-3.133,0.926-3.133,2.62c0,1.953,1.028,2.619,3.133,2.619
	C851.336,89.636,852.365,88.813,852.365,87.017 M822.343,103.016c0-2.468,2.315-4.024,5.969-4.024c2.467,0,5.399,0.553,7.965,1.605
	l0.411-4.068c-2.462-1.131-5.292-1.748-8.273-1.748c-7.045,0-10.691,3.388-10.691,8.484c0,10.109,15.681,6.941,15.681,13.728
	c0,2.819-1.851,4.931-6.325,4.931c-2.933,0-6.428-0.906-8.737-2.615l-0.617,4.156c2.364,1.695,5.752,2.566,9.404,2.566
	c7.56,0,10.796-3.85,10.796-9.488C837.922,106.08,822.343,109.4,822.343,103.016 M811.402,110.762
	c0.054-0.666,0.104-1.592,0.104-2.359c0-9.317-4.77-13.621-12.077-13.621c-8.432,0-12.638,5.327-12.638,14.492
	c0,11.472,4.152,16.758,14.237,16.758c3.701,0,6.888-0.871,9.448-2.258l-0.563-4.11c-2.613,1.287-5.232,1.952-8.328,1.952
	c-6.578,0-9.562-2.775-9.819-10.854H811.402L811.402,110.762z M807.044,107.428H791.66c0.31-5.719,2.624-8.436,7.823-8.436
	C803.906,98.992,806.942,101.317,807.044,107.428 M780.715,109.992L780.715,109.992c0-11.618-4.516-15.774-11.662-15.774
	c-3.394,0-6.536,1.126-8.749,3.437l-0.104-0.049l0.055-4.107V84.5l-4.822,0.308v40.606h3.236l0.764-3.188l0.151-0.055
	c1.903,2.37,5.092,3.805,8.896,3.805C776.248,125.977,780.714,121.512,780.715,109.992 M775.788,110.1
	c0,9.514-3.188,11.824-7.971,11.824c-3.76,0-6.33-1.748-7.563-3.756v-15.886c1.591-2.316,4.273-3.652,7.505-3.652
	C772.808,98.629,775.788,100.793,775.788,110.1 M747.761,100.113l0.309-4.92c-0.823-0.254-1.898-0.411-3.03-0.411
	c-4.167,0-7.506,2.565-9.409,6.947h-0.094l-0.411-6.536l-3.906,0.254v29.967h4.876v-15.25c0-6.463,3.854-10.453,8.637-10.453
	C745.807,99.711,746.835,99.809,747.761,100.113 M722.112,115.344V94.781h-4.822v20.459c0,4.166-2.418,6.271-7.045,6.271
	c-4.729,0-7.094-2.158-7.094-6.271V94.781h-4.832v20.563c0,6.731,3.849,10.633,11.867,10.633
	C718.264,125.977,722.112,122.129,722.112,115.344 M684.291,98.58h7.555v-3.799h-7.555v-7.917l-3.805,0.406l-0.925,7.51h-4.421
	v3.799h4.269v18.556c0,5.352,2.724,8.278,7.966,8.278c1.641,0,3.34-0.31,4.266-0.769l-0.31-3.688c-0.616,0.25-1.693,0.4-2.569,0.4
	c-2.776,0-4.471-1.258-4.471-4.377V98.58L684.291,98.58z M662.289,125.414h4.882v-40.86l-4.882,0.309V125.414L662.289,125.414z
	 M652.215,115.344V94.781h-4.832v20.459c0,4.166-2.414,6.271-7.04,6.271c-4.734,0-7.101-2.158-7.101-6.271V94.781h-4.826v20.563
	c0,6.731,3.854,10.633,11.873,10.633C648.362,125.977,652.215,122.129,652.215,115.344 M622.868,125.414l-14.085-20.303
	L622.1,86.864h-6.271l-11.822,16.298h-5.708V86.865h-5.233v38.549h5.233v-17.787h5.604l12.386,17.787H622.868L622.868,125.414z
	 M568.535,100.113l0.31-4.92c-0.822-0.254-1.899-0.411-3.03-0.411c-4.166,0-7.505,2.565-9.409,6.947h-0.104l-0.411-6.536
	l-3.902,0.254v29.967h4.882v-15.25c0-6.463,3.854-10.453,8.637-10.453C566.582,99.711,567.612,99.809,568.535,100.113
	 M544.12,110.762c0.05-0.666,0.104-1.592,0.104-2.359c0-9.317-4.773-13.621-12.078-13.621c-8.436,0-12.641,5.327-12.641,14.492
	c0,11.472,4.155,16.758,14.235,16.758c3.701,0,6.89-0.871,9.454-2.258l-0.563-4.11c-2.619,1.287-5.243,1.952-8.327,1.952
	c-6.585,0-9.566-2.775-9.821-10.854H544.12L544.12,110.762z M539.759,107.428h-15.378c0.309-5.719,2.619-8.436,7.813-8.436
	C536.62,98.992,539.656,101.317,539.759,107.428 M507.32,125.414h4.827v-20.309c0-6.991-3.646-10.887-10.33-10.887
	c-3.24,0-6.374,1.077-8.587,3.388l-0.103-0.054l0.049-4.107v-8.891l-4.822,0.304v40.556h4.822v-23.186
	c1.232-1.954,4.015-3.496,7.202-3.496c4.729,0,6.941,2.262,6.941,6.374V125.414L507.32,125.414z M464.698,110.129
	c0-7.759,2.467-10.883,9.102-10.883c2.208,0,4.421,0.558,6.218,1.361l0.309-4.337c-2.003-0.872-4.777-1.488-7.505-1.488
	c-9.146,0-13.149,5.224-13.149,15.348c0,11.035,4.416,15.951,12.998,15.951c3.235,0,6.114-0.871,7.917-2.101l-0.362-3.977
	c-1.852,1.111-4.113,1.715-6.526,1.715C467.835,121.719,464.698,118.594,464.698,110.129 M438.275,103.016
	c0-2.468,2.315-4.024,5.968-4.024c2.469,0,5.4,0.553,7.972,1.605l0.405-4.068c-2.463-1.131-5.287-1.748-8.273-1.748
	c-7.045,0-10.688,3.388-10.688,8.484c0,10.109,15.678,6.941,15.678,13.728c0,2.819-1.852,4.931-6.325,4.931
	c-2.934,0-6.424-0.906-8.734-2.615l-0.617,4.156c2.36,1.695,5.753,2.566,9.405,2.566c7.554,0,10.79-3.85,10.79-9.488
	C453.853,106.08,438.275,109.4,438.275,103.016 M424.861,87.017c0-1.694-1.028-2.619-3.134-2.619c-2.106,0-3.133,0.925-3.133,2.619
	c0,1.953,1.026,2.619,3.133,2.619C423.832,89.636,424.861,88.813,424.861,87.017 M410.57,115.676
	c0-8.352-11.305-9.723-11.305-12.356c0-2.125,6.683-4.709,6.683-9.821c0-4.068-3.804-7.3-9.307-7.3
	c-7.711,0-11.975,4.612-11.975,13.224v33.654h4.826v-34.11c0-5.724,2.364-8.563,7.045-8.563c2.934,0,4.783,1.371,4.783,3.241
	c0,4.107-7.251,6.536-7.251,10.281c0,4.763,11.569,5.625,11.569,11.902c0,3.447-3.031,5.121-7.3,5.121
	c-1.93,0-3.784-0.49-5.353-1.195l-0.304,4.451c1.954,0.816,4.392,1.209,6.478,1.209C406.002,125.414,410.57,121.719,410.57,115.676
	 M375.256,115.344V94.781h-4.827v20.459c0,4.166-2.418,6.271-7.045,6.271c-4.734,0-7.1-2.158-7.1-6.271V94.781h-4.821v20.563
	c0,6.731,3.848,10.633,11.866,10.633C371.404,125.977,375.256,122.129,375.256,115.344 M344.051,110.762
	c0.054-0.666,0.103-1.592,0.103-2.359c0-9.317-4.772-13.621-12.073-13.621c-8.435,0-12.646,5.327-12.646,14.492
	c0,11.472,4.161,16.758,14.237,16.758c3.7,0,6.888-0.87,9.458-2.258l-0.567-4.11c-2.614,1.287-5.238,1.952-8.323,1.952
	c-6.585,0-9.565-2.775-9.825-10.854H344.051L344.051,110.762z M339.689,107.428h-15.378c0.309-5.719,2.624-8.436,7.818-8.436
	C336.55,98.992,339.586,101.317,339.689,107.428 M314.603,100.113l0.309-4.92c-0.821-0.254-1.898-0.411-3.029-0.411
	c-4.167,0-7.507,2.565-9.405,6.947h-0.104l-0.41-6.536l-3.902,0.254v29.967h4.876v-15.25c0-6.463,3.854-10.453,8.637-10.453
	C312.65,99.711,313.677,99.809,314.603,100.113 M290.496,98.943c0-8.382-4.005-12.078-13.464-12.078h-12.798v38.549h5.238v-14.447
	h7.56C286.594,110.967,290.496,106.863,290.496,98.943 M285.106,98.943c0,5.914-2.624,7.614-8.072,7.614h-7.56V91.433h7.56
	C282.639,91.433,285.106,93.337,285.106,98.943 M424.141,94.781l-4.877,0.254v30.378h4.877V94.781z M851.644,94.781l-4.876,0.254
	v30.378h4.876V94.781z"/>
</svg>
